<mxfile host="Electron" modified="2023-07-12T08:56:20.717Z" agent="Mozilla/5.0 (Windows NT 10.0; Win64; x64) AppleWebKit/537.36 (KHTML, like Gecko) draw.io/21.6.1 Chrome/112.0.5615.204 Electron/24.6.1 Safari/537.36" etag="MS6VyuoAwBUYvUbQE-it" version="21.6.1" type="device">
  <diagram name="第 1 页" id="reDzZirITfnZ_xIRcQxF">
    <mxGraphModel dx="1912" dy="1115" grid="1" gridSize="10" guides="1" tooltips="1" connect="1" arrows="1" fold="1" page="1" pageScale="1" pageWidth="1169" pageHeight="827" math="0" shadow="0">
      <root>
        <mxCell id="0" />
        <mxCell id="1" parent="0" />
        <mxCell id="DQuIbpzRkQcvhS-ap767-38" value="" style="group" vertex="1" connectable="0" parent="1">
          <mxGeometry x="180" y="30" width="840" height="780" as="geometry" />
        </mxCell>
        <mxCell id="DQuIbpzRkQcvhS-ap767-7" value="" style="rounded=1;whiteSpace=wrap;html=1;fillColor=none;container=0;" vertex="1" parent="DQuIbpzRkQcvhS-ap767-38">
          <mxGeometry x="460" y="50" width="360" height="310" as="geometry" />
        </mxCell>
        <mxCell id="DQuIbpzRkQcvhS-ap767-2" value="" style="rounded=0;whiteSpace=wrap;html=1;rotation=90;container=0;" vertex="1" parent="DQuIbpzRkQcvhS-ap767-38">
          <mxGeometry x="510" y="140" width="120" height="60" as="geometry" />
        </mxCell>
        <mxCell id="DQuIbpzRkQcvhS-ap767-3" value="" style="rounded=0;whiteSpace=wrap;html=1;rotation=90;container=0;" vertex="1" parent="DQuIbpzRkQcvhS-ap767-38">
          <mxGeometry x="650" y="140" width="120" height="60" as="geometry" />
        </mxCell>
        <mxCell id="DQuIbpzRkQcvhS-ap767-4" value="容器1" style="text;html=1;strokeColor=none;fillColor=none;align=center;verticalAlign=middle;whiteSpace=wrap;rounded=0;fontSize=20;container=0;" vertex="1" parent="DQuIbpzRkQcvhS-ap767-38">
          <mxGeometry x="540" y="110" width="60" height="30" as="geometry" />
        </mxCell>
        <mxCell id="DQuIbpzRkQcvhS-ap767-5" value="容器2" style="text;html=1;strokeColor=none;fillColor=none;align=center;verticalAlign=middle;whiteSpace=wrap;rounded=0;fontSize=20;container=0;" vertex="1" parent="DQuIbpzRkQcvhS-ap767-38">
          <mxGeometry x="680" y="110" width="60" height="30" as="geometry" />
        </mxCell>
        <mxCell id="DQuIbpzRkQcvhS-ap767-6" value="&lt;font style=&quot;font-size: 24px;&quot;&gt;Pod2&lt;/font&gt;" style="text;html=1;strokeColor=none;fillColor=none;align=center;verticalAlign=middle;whiteSpace=wrap;rounded=0;container=0;" vertex="1" parent="DQuIbpzRkQcvhS-ap767-38">
          <mxGeometry x="560" y="70" width="160" height="30" as="geometry" />
        </mxCell>
        <mxCell id="DQuIbpzRkQcvhS-ap767-8" value="" style="rounded=0;whiteSpace=wrap;html=1;container=0;" vertex="1" parent="DQuIbpzRkQcvhS-ap767-38">
          <mxGeometry x="480" y="230" width="320" height="110" as="geometry" />
        </mxCell>
        <mxCell id="DQuIbpzRkQcvhS-ap767-9" value="共享网络空间" style="text;html=1;strokeColor=none;fillColor=none;align=left;verticalAlign=middle;whiteSpace=wrap;rounded=0;fontSize=20;container=0;" vertex="1" parent="DQuIbpzRkQcvhS-ap767-38">
          <mxGeometry x="490" y="230" width="130" height="40" as="geometry" />
        </mxCell>
        <mxCell id="DQuIbpzRkQcvhS-ap767-11" value="Docker0网桥" style="rounded=0;whiteSpace=wrap;html=1;align=left;fontSize=20;container=0;" vertex="1" parent="DQuIbpzRkQcvhS-ap767-38">
          <mxGeometry x="20" y="548" width="800" height="40" as="geometry" />
        </mxCell>
        <mxCell id="DQuIbpzRkQcvhS-ap767-12" value="ethXXX" style="rounded=0;whiteSpace=wrap;html=1;fontSize=20;rotation=-90;container=0;" vertex="1" parent="DQuIbpzRkQcvhS-ap767-38">
          <mxGeometry x="590" y="480" width="100" height="36" as="geometry" />
        </mxCell>
        <mxCell id="DQuIbpzRkQcvhS-ap767-13" value="" style="endArrow=classic;startArrow=classic;html=1;rounded=0;entryX=0.5;entryY=1;entryDx=0;entryDy=0;exitX=1;exitY=0.5;exitDx=0;exitDy=0;" edge="1" parent="DQuIbpzRkQcvhS-ap767-38" source="DQuIbpzRkQcvhS-ap767-12" target="DQuIbpzRkQcvhS-ap767-8">
          <mxGeometry width="50" height="50" relative="1" as="geometry">
            <mxPoint x="420" y="470" as="sourcePoint" />
            <mxPoint x="470" y="420" as="targetPoint" />
          </mxGeometry>
        </mxCell>
        <mxCell id="DQuIbpzRkQcvhS-ap767-14" value="路由" style="ellipse;shape=cloud;whiteSpace=wrap;html=1;fontSize=20;container=0;" vertex="1" parent="DQuIbpzRkQcvhS-ap767-38">
          <mxGeometry x="360" y="610" width="120" height="80" as="geometry" />
        </mxCell>
        <mxCell id="DQuIbpzRkQcvhS-ap767-15" value="Node1" style="text;html=1;strokeColor=none;fillColor=none;align=center;verticalAlign=middle;whiteSpace=wrap;rounded=0;fontSize=24;container=0;" vertex="1" parent="DQuIbpzRkQcvhS-ap767-38">
          <mxGeometry x="20" y="10" width="90" height="30" as="geometry" />
        </mxCell>
        <mxCell id="DQuIbpzRkQcvhS-ap767-18" value="" style="rounded=1;whiteSpace=wrap;html=1;fillColor=none;container=0;" vertex="1" parent="DQuIbpzRkQcvhS-ap767-38">
          <mxGeometry x="20" y="50" width="360" height="310" as="geometry" />
        </mxCell>
        <mxCell id="DQuIbpzRkQcvhS-ap767-19" value="" style="rounded=0;whiteSpace=wrap;html=1;rotation=90;container=0;" vertex="1" parent="DQuIbpzRkQcvhS-ap767-38">
          <mxGeometry x="70" y="140" width="120" height="60" as="geometry" />
        </mxCell>
        <mxCell id="DQuIbpzRkQcvhS-ap767-20" value="" style="rounded=0;whiteSpace=wrap;html=1;rotation=90;container=0;" vertex="1" parent="DQuIbpzRkQcvhS-ap767-38">
          <mxGeometry x="210" y="140" width="120" height="60" as="geometry" />
        </mxCell>
        <mxCell id="DQuIbpzRkQcvhS-ap767-21" value="容器1" style="text;html=1;strokeColor=none;fillColor=none;align=center;verticalAlign=middle;whiteSpace=wrap;rounded=0;fontSize=20;container=0;" vertex="1" parent="DQuIbpzRkQcvhS-ap767-38">
          <mxGeometry x="100" y="110" width="60" height="30" as="geometry" />
        </mxCell>
        <mxCell id="DQuIbpzRkQcvhS-ap767-22" value="容器2" style="text;html=1;strokeColor=none;fillColor=none;align=center;verticalAlign=middle;whiteSpace=wrap;rounded=0;fontSize=20;container=0;" vertex="1" parent="DQuIbpzRkQcvhS-ap767-38">
          <mxGeometry x="240" y="110" width="60" height="30" as="geometry" />
        </mxCell>
        <mxCell id="DQuIbpzRkQcvhS-ap767-23" value="&lt;font style=&quot;font-size: 24px;&quot;&gt;Pod1&lt;/font&gt;" style="text;html=1;strokeColor=none;fillColor=none;align=center;verticalAlign=middle;whiteSpace=wrap;rounded=0;container=0;" vertex="1" parent="DQuIbpzRkQcvhS-ap767-38">
          <mxGeometry x="120" y="70" width="160" height="30" as="geometry" />
        </mxCell>
        <mxCell id="DQuIbpzRkQcvhS-ap767-24" value="" style="rounded=0;whiteSpace=wrap;html=1;container=0;" vertex="1" parent="DQuIbpzRkQcvhS-ap767-38">
          <mxGeometry x="40" y="230" width="320" height="110" as="geometry" />
        </mxCell>
        <mxCell id="DQuIbpzRkQcvhS-ap767-25" value="共享网络空间" style="text;html=1;strokeColor=none;fillColor=none;align=left;verticalAlign=middle;whiteSpace=wrap;rounded=0;fontSize=20;container=0;" vertex="1" parent="DQuIbpzRkQcvhS-ap767-38">
          <mxGeometry x="50" y="230" width="130" height="40" as="geometry" />
        </mxCell>
        <mxCell id="DQuIbpzRkQcvhS-ap767-27" value="ethXXX" style="rounded=0;whiteSpace=wrap;html=1;fontSize=20;rotation=-90;container=0;" vertex="1" parent="DQuIbpzRkQcvhS-ap767-38">
          <mxGeometry x="150" y="480" width="100" height="36" as="geometry" />
        </mxCell>
        <mxCell id="DQuIbpzRkQcvhS-ap767-28" value="" style="endArrow=classic;startArrow=classic;html=1;rounded=0;entryX=0.5;entryY=1;entryDx=0;entryDy=0;exitX=1;exitY=0.5;exitDx=0;exitDy=0;" edge="1" parent="DQuIbpzRkQcvhS-ap767-38" source="DQuIbpzRkQcvhS-ap767-27" target="DQuIbpzRkQcvhS-ap767-24">
          <mxGeometry width="50" height="50" relative="1" as="geometry">
            <mxPoint x="-20" y="470" as="sourcePoint" />
            <mxPoint x="30" y="420" as="targetPoint" />
          </mxGeometry>
        </mxCell>
        <mxCell id="DQuIbpzRkQcvhS-ap767-31" value="IP3" style="ellipse;whiteSpace=wrap;html=1;fontSize=20;fontColor=#FFFFFF;fillColor=#000000;" vertex="1" parent="DQuIbpzRkQcvhS-ap767-38">
          <mxGeometry x="370.01" y="530" width="100" height="38" as="geometry" />
        </mxCell>
        <mxCell id="DQuIbpzRkQcvhS-ap767-32" value="&lt;font style=&quot;font-size: 20px;&quot;&gt;eth0&lt;/font&gt;" style="rounded=0;whiteSpace=wrap;html=1;rotation=-90;" vertex="1" parent="DQuIbpzRkQcvhS-ap767-38">
          <mxGeometry x="610.94" y="290.94" width="58.13" height="40" as="geometry" />
        </mxCell>
        <mxCell id="DQuIbpzRkQcvhS-ap767-34" value="&lt;font style=&quot;font-size: 20px;&quot;&gt;eth0&lt;/font&gt;" style="rounded=0;whiteSpace=wrap;html=1;rotation=-90;" vertex="1" parent="DQuIbpzRkQcvhS-ap767-38">
          <mxGeometry x="170.93" y="290.94" width="58.13" height="40" as="geometry" />
        </mxCell>
        <mxCell id="DQuIbpzRkQcvhS-ap767-29" value="IP1" style="ellipse;whiteSpace=wrap;html=1;fontSize=20;fontColor=#FFFFFF;fillColor=#000000;" vertex="1" parent="DQuIbpzRkQcvhS-ap767-38">
          <mxGeometry x="210" y="291.94" width="100" height="38" as="geometry" />
        </mxCell>
        <mxCell id="DQuIbpzRkQcvhS-ap767-30" value="IP2" style="ellipse;whiteSpace=wrap;html=1;fontSize=20;fontColor=#FFFFFF;fillColor=#000000;" vertex="1" parent="DQuIbpzRkQcvhS-ap767-38">
          <mxGeometry x="650" y="291.94" width="100" height="38" as="geometry" />
        </mxCell>
        <mxCell id="DQuIbpzRkQcvhS-ap767-36" value="&lt;font style=&quot;font-size: 20px;&quot;&gt;eth0&lt;/font&gt;" style="rounded=0;whiteSpace=wrap;html=1;rotation=-90;" vertex="1" parent="DQuIbpzRkQcvhS-ap767-38">
          <mxGeometry x="390.20000000000005" y="732" width="59.61" height="36.03" as="geometry" />
        </mxCell>
        <mxCell id="DQuIbpzRkQcvhS-ap767-37" value="" style="rounded=0;whiteSpace=wrap;html=1;fillColor=none;" vertex="1" parent="DQuIbpzRkQcvhS-ap767-38">
          <mxGeometry width="840" height="780" as="geometry" />
        </mxCell>
      </root>
    </mxGraphModel>
  </diagram>
</mxfile>
